<?xml version="1.0" encoding="UTF-8" standalone="no"?>
<!DOCTYPE svg PUBLIC "-//W3C//DTD SVG 1.1//EN" "http://www.w3.org/Graphics/SVG/1.1/DTD/svg11.dtd">
<svg width="100%" height="100%" viewBox="0 0 85 97" version="1.1" xmlns="http://www.w3.org/2000/svg" xmlns:xlink="http://www.w3.org/1999/xlink" xml:space="preserve" style="fill-rule:evenodd;clip-rule:evenodd;stroke-linejoin:round;stroke-miterlimit:1.41421;">
    <g transform="matrix(1,0,0,1,-1.376,-1.5)">
        <path d="M43.86,6.946C34.913,6.946 26.814,12.85 23.501,21.71L64.219,21.71C60.906,12.85 52.807,6.946 43.86,6.946Z" style="fill:none;"/>
        <path d="M83.002,22.711L68.439,22.711L68.335,22.349C65.003,10.776 55.168,3 43.86,3C32.552,3 22.716,10.776 19.384,22.349L19.28,22.711L4.717,22.711C3.702,22.711 2.876,23.537 2.876,24.553L2.876,95.159C2.876,96.174 3.702,97 4.717,97L83.001,97C84.017,97 84.843,96.174 84.843,95.159L84.843,24.553C84.843,23.537 84.017,22.711 83.002,22.711ZM22.091,22.71L22.317,22.048C25.606,12.417 34.263,5.946 43.86,5.946C53.456,5.946 62.113,12.417 65.402,22.049L65.628,22.711L22.091,22.711L22.091,22.71Z" style="fill:none;"/>
        <path d="M83.002,21.711L69.189,21.711C65.634,9.905 55.499,2 43.86,2C32.221,2 22.086,9.905 18.53,21.71L4.717,21.71C3.151,21.71 1.876,22.985 1.876,24.552L1.876,95.158C1.876,96.726 3.151,98 4.717,98L83.001,98C84.568,98 85.843,96.726 85.843,95.159L85.843,24.553C85.843,22.986 84.569,21.711 83.002,21.711ZM84.843,95.159C84.843,96.174 84.017,97 83.001,97L4.717,97C3.702,97 2.876,96.174 2.876,95.159L2.876,24.553C2.876,23.537 3.702,22.711 4.717,22.711L19.28,22.711L19.384,22.349C22.716,10.776 32.552,3 43.86,3C55.169,3 65.004,10.776 68.335,22.349L68.439,22.711L83.002,22.711C84.017,22.711 84.843,23.537 84.843,24.553L84.843,95.159Z" style="fill:rgb(225,69,61);fill-rule:nonzero;stroke:rgb(225,69,61);stroke-width:1px;"/>
        <g transform="matrix(1,0,0,1.01847,0,-0.419488)">
            <path d="M43.86,5.946C34.264,5.946 25.607,12.417 22.318,22.049L22.092,22.711L65.628,22.711L65.402,22.049C62.113,12.417 53.455,5.946 43.86,5.946ZM23.5,21.71C26.814,12.85 34.912,6.946 43.86,6.946C52.808,6.946 60.906,12.85 64.218,21.71L23.5,21.71Z" style="fill:rgb(225,69,61);fill-rule:nonzero;stroke:rgb(225,69,61);stroke-width:0.99px;"/>
        </g>
        <g transform="matrix(0.790155,0,0,0.790155,3.12442,17.6116)">
            <text x="27.707px" y="87.23px" style="font-family:'Nunito-Light', 'Nunito';font-weight:300;font-size:70.033px;fill:rgb(225,69,61);">V</text>
        </g>
        <g transform="matrix(0.650704,0,0,0.650704,-9.99233,-19.9555)">
            <text x="27.707px" y="87.23px" style="font-family:'Nunito-SemiBold', 'Nunito';font-weight:600;font-size:18px;fill:rgb(225,69,61);">23</text>
        </g>
    </g>
</svg>
